<svg width="856" height="483" viewBox="0 0 856 483" fill="none" xmlns="http://www.w3.org/2000/svg">
<path d="M626.961 292.578C590.425 292.578 558.173 287.165 530.207 276.339C502.692 265.063 481.266 248.599 465.93 226.947C450.593 205.296 442.925 179.134 442.925 148.461C442.925 118.24 450.368 92.0777 465.253 69.9753C480.138 47.8729 501.339 30.7323 528.854 18.5534C556.82 6.37458 589.523 0.285156 626.961 0.285156C637.336 0.285156 647.26 0.961755 656.732 2.31497C666.656 3.66816 676.353 5.47246 685.826 7.72781L855.654 8.40439V74.7115C832.649 75.1626 809.193 72.4562 785.287 66.5923C761.831 60.2773 741.082 53.5113 723.039 46.2942L721.009 41.558C736.346 48.7751 750.78 57.7965 764.312 68.6221C777.844 78.9967 788.67 91.1756 796.789 105.159C805.359 118.691 809.644 134.478 809.644 152.521C809.644 181.84 802.202 207.1 787.317 228.301C772.431 249.05 751.231 265.063 723.716 276.339C696.652 287.165 664.4 292.578 626.961 292.578ZM739.954 482.704V466.465C739.954 445.716 733.188 431.282 719.656 423.162C706.575 415.043 688.532 410.984 665.528 410.984H560.654C540.356 410.984 523.216 409.405 509.232 406.247C495.7 403.09 484.875 398.579 476.755 392.715C468.636 386.851 462.772 379.86 459.164 371.741C455.555 364.072 453.751 355.728 453.751 346.706C453.751 328.663 459.615 315.131 471.343 306.11C483.07 296.638 498.858 290.323 518.705 287.165C538.552 284.008 560.429 283.331 584.335 285.135L626.961 292.578C598.544 293.48 577.344 295.961 563.361 300.021C549.829 303.629 543.063 311.072 543.063 322.349C543.063 329.115 545.769 334.527 551.182 338.587C556.595 342.196 564.263 344 574.186 344H684.473C714.694 344 740.405 347.157 761.606 353.472C783.257 360.238 799.721 371.29 810.998 386.626C822.274 402.413 827.913 423.839 827.913 450.903V482.704H739.954ZM626.961 228.977C646.357 228.977 663.273 225.82 677.707 219.505C692.592 213.19 704.094 204.168 712.214 192.441C720.333 180.262 724.392 165.828 724.392 149.138C724.392 131.997 720.333 117.338 712.214 105.159C704.094 92.9799 692.818 83.7329 678.383 77.418C663.949 70.6519 646.808 67.2689 626.961 67.2689C607.565 67.2689 590.425 70.6519 575.54 77.418C560.654 83.7329 549.152 92.9799 541.033 105.159C532.914 117.338 528.854 131.997 528.854 149.138C528.854 165.828 532.914 180.262 541.033 192.441C549.152 204.168 560.429 213.19 574.863 219.505C589.748 225.82 607.114 228.977 626.961 228.977Z" fill="#2352C3"/>
<path d="M214.841 352.119C172.441 352.119 135.002 345.353 102.525 331.821C70.499 318.289 45.4646 298.667 27.4219 272.956C9.37911 246.794 0.357727 214.769 0.357727 176.879C0.357727 138.989 9.37911 106.963 27.4219 80.801C45.4646 54.1879 70.499 34.1154 102.525 20.5833C135.002 7.05121 172.441 0.285156 214.841 0.285156C257.242 0.285156 294.229 7.05121 325.804 20.5833C357.83 34.1154 382.864 54.1879 400.907 80.801C418.95 106.963 427.971 138.989 427.971 176.879C427.971 214.769 418.95 246.794 400.907 272.956C382.864 298.667 357.83 318.289 325.804 331.821C294.229 345.353 257.242 352.119 214.841 352.119ZM214.841 284.459C238.297 284.459 259.271 280.399 277.765 272.28C296.71 263.71 311.595 251.531 322.421 235.743C333.247 219.505 338.66 199.883 338.66 176.879C338.66 153.874 333.247 134.253 322.421 118.014C311.595 101.325 296.936 88.6947 278.442 80.1244C259.948 71.5541 238.748 67.2689 214.841 67.2689C191.386 67.2689 170.185 71.5541 151.24 80.1244C132.295 88.6947 117.185 101.099 105.908 117.338C95.0822 133.576 89.6694 153.423 89.6694 176.879C89.6694 199.883 95.0822 219.505 105.908 235.743C116.734 251.531 131.619 263.71 150.564 272.28C169.509 280.399 190.934 284.459 214.841 284.459Z" fill="#87A0DE"/>
</svg>
