<svg width="893" height="504" viewBox="0 0 893 504" fill="none" xmlns="http://www.w3.org/2000/svg">
<path d="M654.316 305.337C616.188 305.337 582.532 299.688 553.347 288.391C524.633 276.623 502.274 259.442 486.27 236.848C470.266 214.253 462.263 186.952 462.263 154.943C462.263 123.405 470.03 96.1033 485.564 73.0382C501.098 49.9731 523.221 32.0859 551.935 19.3765C581.119 6.66719 615.246 0.3125 654.316 0.3125C665.142 0.3125 675.498 1.0186 685.383 2.43076C695.739 3.84289 705.859 5.72575 715.744 8.07935L892.969 8.7854V77.9807C868.963 78.4515 844.485 75.6272 819.537 69.5078C795.06 62.9178 773.407 55.8571 754.578 48.3256L752.46 43.3831C768.465 50.9145 783.528 60.3289 797.649 71.6261C811.771 82.4526 823.068 95.1619 831.541 109.754C840.484 123.876 844.956 140.351 844.956 159.179C844.956 189.776 837.189 216.136 821.656 238.26C806.122 259.913 783.998 276.623 755.285 288.391C727.042 299.688 693.385 305.337 654.316 305.337ZM772.23 503.744V486.798C772.23 465.145 765.17 450.082 751.048 441.609C737.397 433.136 718.569 428.9 694.562 428.9H585.12C563.938 428.9 546.051 427.253 531.459 423.957C517.337 420.662 506.04 415.955 497.567 409.836C489.094 403.717 482.975 396.421 479.209 387.948C475.443 379.945 473.561 371.237 473.561 361.823C473.561 342.994 479.68 328.873 491.919 319.458C504.157 309.573 520.632 302.983 541.344 299.688C562.055 296.393 584.885 295.687 609.833 297.57L654.316 305.337C624.661 306.278 602.537 308.867 587.945 313.104C573.823 316.869 566.763 324.636 566.763 336.404C566.763 343.465 569.587 349.113 575.235 353.35C580.884 357.116 588.886 358.999 599.242 358.999H714.332C745.87 358.999 772.701 362.294 794.825 368.884C817.419 375.944 834.6 387.477 846.368 403.481C858.136 419.956 864.02 442.315 864.02 470.558V503.744H772.23ZM654.316 238.966C674.557 238.966 692.208 235.671 707.271 229.081C722.805 222.491 734.808 213.076 743.281 200.838C751.754 188.128 755.991 173.066 755.991 155.649C755.991 137.762 751.754 122.463 743.281 109.754C734.808 97.0448 723.04 87.3951 707.978 80.8051C692.915 73.7443 675.027 70.2139 654.316 70.2139C634.075 70.2139 616.188 73.7443 600.654 80.8051C585.12 87.3951 573.117 97.0448 564.644 109.754C556.171 122.463 551.935 137.762 551.935 155.649C551.935 173.066 556.171 188.128 564.644 200.838C573.117 213.076 584.885 222.491 599.948 229.081C615.482 235.671 633.604 238.966 654.316 238.966Z" fill="white"/>
<path d="M224.244 367.471C179.997 367.471 140.928 360.411 107.036 346.289C73.6151 332.168 47.4904 311.692 28.6617 284.861C9.83303 257.559 0.418701 224.138 0.418701 184.598C0.418701 145.058 9.83303 111.637 28.6617 84.3354C47.4904 56.5631 73.6151 35.6162 107.036 21.4948C140.928 7.37325 179.997 0.3125 224.244 0.3125C268.492 0.3125 307.091 7.37325 340.041 21.4948C373.462 35.6162 399.586 56.5631 418.415 84.3354C437.244 111.637 446.658 145.058 446.658 184.598C446.658 224.138 437.244 257.559 418.415 284.861C399.586 311.692 373.462 332.168 340.041 346.289C307.091 360.411 268.492 367.471 224.244 367.471ZM224.244 296.864C248.722 296.864 270.61 292.628 289.909 284.155C309.68 275.211 325.213 262.502 336.51 246.027C347.808 229.081 353.456 208.605 353.456 184.598C353.456 160.592 347.808 140.115 336.51 123.17C325.213 105.753 309.915 92.5729 290.616 83.6293C271.316 74.6857 249.192 70.2139 224.244 70.2139C199.767 70.2139 177.644 74.6857 157.873 83.6293C138.103 92.5729 122.334 105.518 110.566 122.463C99.2692 139.409 93.6206 160.121 93.6206 184.598C93.6206 208.605 99.2692 229.081 110.566 246.027C121.864 262.502 137.397 275.211 157.167 284.155C176.937 292.628 199.296 296.864 224.244 296.864Z" fill="white"/>
</svg>
